<svg id="Слой_1" data-name="Слой 1" xmlns="http://www.w3.org/2000/svg" viewBox="0 0 202.5 134.54"><defs><style>.cls-1,.cls-5{stroke:#000;stroke-miterlimit:10;}.cls-2{fill:#903aff;}.cls-3{fill:#45922a;}.cls-4{fill:#dd2e2d;}.cls-5{fill:none;stroke-width:3px;}</style></defs><title>logo 2.0</title><rect class="cls-1" x="189.5" y="33.8" width="2" height="81" rx="1" ry="1"/><rect class="cls-1" x="101.5" y="34.5" width="2" height="81" rx="1" ry="1"/><rect class="cls-1" x="10.5" y="34.5" width="2" height="81" rx="0.5" ry="0.5"/><circle class="cls-2" cx="11.5" cy="11.5" r="11.5"/><circle class="cls-3" cx="102.5" cy="11.5" r="11.5"/><circle class="cls-4" cx="191" cy="11.5" r="11.5"/><path class="cls-1" d="M57.35,115.06h0a1,1,0,0,1-1.28-.6l-28-77.24a1,1,0,0,1,.6-1.28h0a1,1,0,0,1,1.28.6l28,77.24A1,1,0,0,1,57.35,115.06Z" transform="translate(-0.5 -1.5)"/><path class="cls-1" d="M56.65,115.06h0a1,1,0,0,1-.6-1.28l28-77.24a1,1,0,0,1,1.28-.6h0a1,1,0,0,1,.6,1.28l-28,77.24A1,1,0,0,1,56.65,115.06Z" transform="translate(-0.5 -1.5)"/><rect class="cls-5" x="120" y="34" width="51" height="70" rx="23" ry="23"/><rect class="cls-1" x="172" y="33" width="2" height="81" rx="1" ry="1"/><path class="cls-5" d="M174.5,114.5" transform="translate(-0.5 -1.5)"/><path class="cls-5" d="M174.5,114.5" transform="translate(-0.5 -1.5)"/><path class="cls-5" d="M173.5,114.5c-.36,12.08-11.72,20.67-23,20h-7a23.07,23.07,0,0,1-23-23" transform="translate(-0.5 -1.5)"/></svg>